<svg width="27" height="20" viewBox="0 0 27 20" fill="none" xmlns="http://www.w3.org/2000/svg">
<path d="M1.70264 18.7495C2.22053 19.2353 2.90502 19.5039 3.61507 19.5H24.0767C25.691 19.5 26.9998 18.1912 26.9998 16.2116V10H13.4805L1.70264 18.7495Z" fill="#D7141A"/>
<path d="M24.0769 0.5H3.61526C2.90241 0.499811 2.21431 0.761424 1.68164 1.23516L13.4807 10H27V3.42309C27 2.64784 26.692 1.90434 26.1438 1.35615C25.5956 0.807968 24.8521 0.5 24.0769 0.5Z" fill="#EEEEEE"/>
<path d="M1.70206 18.7508L13.4799 10.0012L1.68087 1.23633C1.36987 1.50971 1.12075 1.84627 0.950129 2.22356C0.779505 2.60085 0.691303 3.01019 0.691406 3.42426V16.2128C0.691406 17.2943 1.08383 18.1734 1.70206 18.7508Z" fill="#11457E"/>
</svg>
