<svg width="40" height="38" viewBox="0 0 40 38" fill="none" xmlns="http://www.w3.org/2000/svg">
<path d="M8.00005 0.600006C7.56005 0.600006 7.20005 0.960006 7.20005 1.40001V4.19219L1.93599 7.95157C1.72799 8.09557 1.60005 8.34401 1.60005 8.60001V11.8C1.60005 12.24 1.96005 12.6 2.40005 12.6H20.0001C20.4401 12.6 20.8001 12.24 20.8001 11.8V8.60001C20.8001 8.34401 20.6721 8.09557 20.4641 7.95157L15.2001 4.19219V1.40001C15.2001 0.960006 14.8401 0.600006 14.4001 0.600006H8.00005ZM5.59067 16.6C5.15147 16.6 4.79224 16.96 4.79224 17.4V18.2H1.59849C1.15929 18.2 0.800049 18.56 0.800049 19V36.6C0.800049 37.04 1.15929 37.4 1.59849 37.4H20.6469C21.1501 37.4 21.5563 36.9915 21.5563 36.4875V19.0656C21.5563 18.5872 21.1698 18.2 20.6922 18.2H17.5641V17.5078C17.5641 17.0062 17.1587 16.6 16.6579 16.6H5.59067ZM24.0688 18.2C24.0152 18.1984 23.6732 18.196 23.4204 18.4688C23.2244 18.68 23.2041 18.928 23.2001 19V24.6H39.2001V19C39.2001 18.56 38.8408 18.2 38.4016 18.2H36.7251H29.5407H24.0688ZM4.79224 21.4H17.5657C18.0049 21.4 18.3641 21.76 18.3641 22.2V33.4C18.3641 33.84 18.0049 34.2 17.5657 34.2H4.79224C4.35304 34.2 3.9938 33.84 3.9938 33.4V22.2C3.9938 21.76 4.35304 21.4 4.79224 21.4ZM26.3469 21.4H35.9266C36.3658 21.4 36.7251 21.76 36.7251 22.2C36.7251 22.64 36.3658 23 35.9266 23H26.3469C25.9077 23 25.5485 22.64 25.5485 22.2C25.5485 21.76 25.9077 21.4 26.3469 21.4ZM5.59067 23V32.6H16.7672V23H5.59067ZM23.2001 26.2V36.6C23.2017 36.6664 23.2149 36.9223 23.4141 37.1391C23.6605 37.4063 23.9942 37.4016 24.0454 37.4H38.4016C38.8408 37.4 39.2001 37.04 39.2001 36.6V26.2H23.2001ZM26.3469 28.6C26.7861 28.6 27.1454 28.96 27.1454 29.4V33.4C27.1454 33.84 26.7861 34.2 26.3469 34.2C25.9077 34.2 25.5485 33.84 25.5485 33.4V29.4C25.5485 28.96 25.9077 28.6 26.3469 28.6Z" fill="black"/>
</svg>
